<svg width="24" height="24" viewBox="0 0 24 24" fill="none" xmlns="http://www.w3.org/2000/svg">
<path d="M13.0313 14.836C14.25 14.1876 15.2169 13.1503 15.7781 11.8891C16.3393 10.6279 16.4627 9.21527 16.1286 7.87588C15.7944 6.53648 15.022 5.34729 13.9342 4.49748C12.8463 3.64766 11.5055 3.18604 10.1251 3.18604C8.74462 3.18604 7.40383 3.64766 6.31597 4.49748C5.22811 5.34729 4.45568 6.53648 4.12155 7.87588C3.78742 9.21527 3.91079 10.6279 4.47202 11.8891C5.03326 13.1503 6.00012 14.1876 7.21881 14.836C5.15632 15.4201 3.29257 16.6323 1.81788 18.3882C1.72713 18.5029 1.68464 18.6485 1.69941 18.794C1.71418 18.9395 1.78505 19.0736 1.897 19.1677C2.00894 19.2618 2.15315 19.3087 2.29905 19.2983C2.44495 19.2879 2.58105 19.221 2.6785 19.112C4.60319 16.8226 7.24788 15.5626 10.1251 15.5626C13.0023 15.5626 15.6469 16.8226 17.5698 19.112C17.6165 19.171 17.6745 19.2201 17.7406 19.2563C17.8066 19.2924 17.8792 19.315 17.9541 19.3226C18.029 19.3302 18.1047 19.3227 18.1766 19.3005C18.2486 19.2783 18.3153 19.242 18.3729 19.1935C18.4306 19.145 18.4779 19.0855 18.5121 19.0184C18.5463 18.9514 18.5666 18.8781 18.572 18.803C18.5773 18.7279 18.5676 18.6525 18.5432 18.5813C18.5189 18.51 18.4805 18.4444 18.4304 18.3882C16.9557 16.6323 15.0938 15.4201 13.0313 14.836ZM5.06257 9.37509C5.06257 8.37383 5.35948 7.39504 5.91575 6.56252C6.47202 5.73 7.26268 5.08112 8.18773 4.69795C9.11278 4.31479 10.1307 4.21453 11.1127 4.40987C12.0947 4.60521 12.9968 5.08736 13.7048 5.79537C14.4128 6.50337 14.895 7.40542 15.0903 8.38745C15.2856 9.36948 15.1854 10.3874 14.8022 11.3124C14.419 12.2375 13.7702 13.0281 12.9376 13.5844C12.1051 14.1407 11.1263 14.4376 10.1251 14.4376C8.78286 14.4361 7.49606 13.9023 6.54698 12.9532C5.5979 12.0041 5.06405 10.7173 5.06257 9.37509ZM22.8048 13.5751L22.2498 13.2554C22.3336 12.9237 22.3336 12.5764 22.2498 12.2448L22.8048 11.9251C22.8688 11.8882 22.9249 11.839 22.9699 11.7804C23.0149 11.7217 23.0479 11.6548 23.0671 11.5834C23.0862 11.512 23.0911 11.4376 23.0815 11.3643C23.0719 11.291 23.0479 11.2204 23.011 11.1563C22.9741 11.0923 22.9249 11.0362 22.8663 10.9912C22.8076 10.9462 22.7407 10.9132 22.6693 10.894C22.598 10.8749 22.5235 10.8699 22.4502 10.8796C22.3769 10.8892 22.3063 10.9132 22.2423 10.9501L21.6863 11.2717C21.4414 11.0335 21.1412 10.8598 20.8126 10.7663V10.1251C20.8126 9.97591 20.7533 9.83284 20.6478 9.72735C20.5423 9.62186 20.3992 9.56259 20.2501 9.56259C20.1009 9.56259 19.9578 9.62186 19.8523 9.72735C19.7468 9.83284 19.6876 9.97591 19.6876 10.1251V10.7663C19.359 10.8598 19.0587 11.0335 18.8138 11.2717L18.2579 10.9501C18.1286 10.8755 17.975 10.8553 17.8308 10.894C17.6866 10.9327 17.5637 11.0271 17.4891 11.1563C17.4145 11.2856 17.3944 11.4393 17.433 11.5834C17.4717 11.7276 17.5661 11.8505 17.6954 11.9251L18.2504 12.2448C18.1666 12.5764 18.1666 12.9237 18.2504 13.2554L17.6954 13.5751C17.5661 13.6497 17.4717 13.7726 17.433 13.9168C17.3944 14.0609 17.4145 14.2146 17.4891 14.3438C17.5637 14.4731 17.6866 14.5675 17.8308 14.6062C17.975 14.6449 18.1286 14.6247 18.2579 14.5501L18.8138 14.2285C19.0587 14.4667 19.359 14.6404 19.6876 14.7338V15.3751C19.6876 15.5243 19.7468 15.6674 19.8523 15.7728C19.9578 15.8783 20.1009 15.9376 20.2501 15.9376C20.3992 15.9376 20.5423 15.8783 20.6478 15.7728C20.7533 15.6674 20.8126 15.5243 20.8126 15.3751V14.7338C21.1412 14.6404 21.4414 14.4667 21.6863 14.2285L22.2423 14.5501C22.3063 14.587 22.3769 14.611 22.4502 14.6206C22.5235 14.6302 22.598 14.6253 22.6693 14.6062C22.7407 14.587 22.8076 14.554 22.8663 14.509C22.9249 14.464 22.9741 14.4079 23.011 14.3438C23.0479 14.2798 23.0719 14.2092 23.0815 14.1359C23.0911 14.0626 23.0862 13.9881 23.0671 13.9168C23.0479 13.8454 23.0149 13.7785 22.9699 13.7198C22.9249 13.6612 22.8688 13.612 22.8048 13.5751ZM20.2501 13.6876C20.0646 13.6876 19.8834 13.6326 19.7292 13.5296C19.575 13.4266 19.4549 13.2802 19.3839 13.1089C19.313 12.9376 19.2944 12.7491 19.3306 12.5672C19.3668 12.3853 19.456 12.2183 19.5872 12.0872C19.7183 11.9561 19.8853 11.8668 20.0672 11.8306C20.249 11.7944 20.4375 11.813 20.6088 11.884C20.7801 11.9549 20.9266 12.0751 21.0296 12.2292C21.1326 12.3834 21.1876 12.5647 21.1876 12.7501C21.1876 12.9987 21.0888 13.2372 20.913 13.413C20.7372 13.5888 20.4987 13.6876 20.2501 13.6876Z" fill="#ADADAF"/>
</svg>
