<svg width="16" height="9" viewBox="0 0 16 9" fill="none" xmlns="http://www.w3.org/2000/svg">
<path d="M7.99998 8.96673C7.82221 8.96673 7.65021 8.9334 7.48398 8.86673C7.31687 8.80007 7.17776 8.71118 7.06665 8.60007L0.933317 2.46673C0.688872 2.22229 0.56665 1.91118 0.56665 1.5334C0.56665 1.15562 0.688872 0.844509 0.933317 0.600065C1.17776 0.35562 1.48887 0.233398 1.86665 0.233398C2.24443 0.233398 2.55554 0.35562 2.79998 0.600065L7.99998 5.80007L13.2 0.600065C13.4444 0.35562 13.7555 0.233398 14.1333 0.233398C14.5111 0.233398 14.8222 0.35562 15.0666 0.600065C15.3111 0.844509 15.4333 1.15562 15.4333 1.5334C15.4333 1.91118 15.3111 2.22229 15.0666 2.46673L8.93332 8.60007C8.79998 8.7334 8.65554 8.82762 8.49998 8.88273C8.34443 8.93873 8.17776 8.96673 7.99998 8.96673Z" fill="#161616"/>
</svg>
