<svg width="36" height="36" viewBox="0 0 36 36" fill="none" xmlns="http://www.w3.org/2000/svg">
<rect width="36" height="36" rx="7" fill="#C8FAE3" fill-opacity="0.7"/>
<path d="M25.95 27C23.8 27 21.7043 26.525 19.663 25.575C17.621 24.625 15.8127 23.3583 14.238 21.775C12.6627 20.1917 11.396 18.379 10.438 16.337C9.47933 14.2957 9 12.2 9 10.05V9.525C9 9.34167 9.01667 9.16667 9.05 9H14.9L15.825 14.025L12.975 16.9C13.675 18.1 14.5543 19.225 15.613 20.275C16.671 21.325 17.8333 22.2333 19.1 23L22 20.1L27 21.1V26.95C26.8333 26.9667 26.6583 26.9793 26.475 26.988C26.2917 26.996 26.1167 27 25.95 27ZM12.025 15L13.675 13.35L13.25 11H11.025C11.1083 11.6833 11.225 12.3583 11.375 13.025C11.525 13.6917 11.7417 14.35 12.025 15ZM20.975 23.95C21.625 24.2333 22.2877 24.4583 22.963 24.625C23.6377 24.7917 24.3167 24.9 25 24.95V22.75L22.65 22.275L20.975 23.95Z" fill="#4BB17E"/>
</svg>
