<svg width="24" height="24" viewBox="0 0 24 24" fill="none" xmlns="http://www.w3.org/2000/svg">
<path d="M23.696 1.02895C23.7506 0.892657 23.7639 0.743347 23.7344 0.599533C23.7049 0.455718 23.6339 0.323724 23.5301 0.219914C23.4263 0.116105 23.2943 0.0450444 23.1505 0.0155432C23.0066 -0.013958 22.8573 -0.00060275 22.721 0.0539533L0.900535 8.78245C0.708369 8.85937 0.54115 8.98782 0.417282 9.15365C0.293414 9.31949 0.217698 9.51628 0.198469 9.72237C0.17924 9.92847 0.217242 10.1359 0.308294 10.3218C0.399346 10.5076 0.539916 10.6648 0.714535 10.776L8.20703 15.543L10.5035 19.152C10.612 19.3157 10.7804 19.4304 10.9725 19.4713C11.1646 19.5123 11.3651 19.4762 11.5309 19.3709C11.6967 19.2656 11.8146 19.0995 11.8592 18.9082C11.9038 18.7169 11.8716 18.5158 11.7695 18.348L9.70553 15.105L20.9465 3.86395L18.104 10.971C18.065 11.0628 18.0447 11.1615 18.0442 11.2613C18.0438 11.3611 18.0633 11.46 18.1016 11.5522C18.1399 11.6443 18.1962 11.7279 18.2672 11.7981C18.3382 11.8682 18.4225 11.9234 18.5152 11.9606C18.6078 11.9977 18.7069 12.016 18.8067 12.0143C18.9065 12.0127 19.005 11.9911 19.0963 11.9509C19.1877 11.9107 19.2701 11.8527 19.3387 11.7802C19.4073 11.7078 19.4608 11.6223 19.496 11.529L23.696 1.02895ZM19.886 2.80345L8.64503 14.0445L2.13653 9.90295L19.886 2.80345Z" fill="#ADADAF"/>
<path d="M23.75 18.75C23.75 20.1424 23.1969 21.4777 22.2123 22.4623C21.2277 23.4469 19.8924 24 18.5 24C17.1076 24 15.7723 23.4469 14.7877 22.4623C13.8031 21.4777 13.25 20.1424 13.25 18.75C13.25 17.3576 13.8031 16.0223 14.7877 15.0377C15.7723 14.0531 17.1076 13.5 18.5 13.5C19.8924 13.5 21.2277 14.0531 22.2123 15.0377C23.1969 16.0223 23.75 17.3576 23.75 18.75ZM20.7605 16.2315C20.676 16.1809 20.5823 16.1474 20.4849 16.1329C20.3874 16.1185 20.2881 16.1234 20.1926 16.1473C20.097 16.1713 20.0071 16.2138 19.928 16.2726C19.8489 16.3313 19.7821 16.405 19.7315 16.4895L17.9765 19.4145L17.156 18.594C17.0152 18.4532 16.8242 18.3741 16.625 18.3741C16.4258 18.3741 16.2348 18.4532 16.094 18.594C15.9532 18.7348 15.8741 18.9258 15.8741 19.125C15.8741 19.3242 15.9532 19.5152 16.094 19.656L17.255 20.8155C17.3758 20.9366 17.5227 21.0285 17.6844 21.0843C17.8461 21.1401 18.0184 21.1582 18.1882 21.1374C18.358 21.1166 18.5208 21.0573 18.6643 20.9641C18.8077 20.8709 18.928 20.7462 19.016 20.5995L21.0185 17.2605C21.0691 17.176 21.1026 17.0823 21.1171 16.9849C21.1315 16.8874 21.1266 16.7881 21.1027 16.6926C21.0787 16.597 21.0362 16.5071 20.9774 16.428C20.9187 16.3489 20.845 16.2821 20.7605 16.2315Z" fill="#ADADAF"/>
</svg>
