<svg width="29" height="24" viewBox="0 0 29 24" fill="none" xmlns="http://www.w3.org/2000/svg">
<path d="M1.4307 6.78397L12.976 1.01197C13.087 0.956573 13.2093 0.927734 13.3334 0.927734C13.4574 0.927734 13.5797 0.956573 13.6907 1.01197L25.236 6.78531C25.3688 6.85179 25.4805 6.95392 25.5585 7.08025C25.6365 7.20659 25.6778 7.35215 25.6778 7.50064C25.6778 7.64913 25.6365 7.79469 25.5585 7.92103C25.4805 8.04736 25.3688 8.14949 25.236 8.21597L13.6907 13.988C13.5797 14.0434 13.4574 14.0722 13.3334 14.0722C13.2093 14.0722 13.087 14.0434 12.976 13.988L1.4307 8.21464C1.29793 8.14816 1.18628 8.04603 1.10825 7.91969C1.03022 7.79336 0.988892 7.6478 0.988892 7.49931C0.988892 7.35082 1.03022 7.20526 1.10825 7.07892C1.18628 6.95258 1.29793 6.85046 1.4307 6.78397Z" stroke="#161616" stroke-width="1.5" stroke-linecap="round" stroke-linejoin="round"/>
<path d="M28 12.8333V8.16659L25.3333 6.83325M4 9.49992V16.7159C3.9999 17.2204 4.14292 17.7146 4.41244 18.1411C4.68197 18.5676 5.06695 18.9088 5.52267 19.1253L12.1893 22.2906C12.5468 22.4604 12.9376 22.5484 13.3333 22.5484C13.7291 22.5484 14.1199 22.4604 14.4773 22.2906L21.144 19.1253C21.5997 18.9088 21.9847 18.5676 22.2542 18.1411C22.5237 17.7146 22.6668 17.2204 22.6667 16.7159V9.49992" stroke="#161616" stroke-width="1.5" stroke-linecap="round" stroke-linejoin="round"/>
</svg>
