<svg width="36" height="36" viewBox="0 0 36 36" fill="none" xmlns="http://www.w3.org/2000/svg">
<path d="M18.517 23.1591C17.7595 23.1591 17.0814 23.017 16.483 22.733C15.8845 22.4451 15.4091 22.0511 15.0568 21.5511C14.7083 21.0511 14.5227 20.4792 14.5 19.8352H16.5455C16.5833 20.3125 16.7898 20.7027 17.1648 21.0057C17.5398 21.3049 17.9905 21.4545 18.517 21.4545C18.9299 21.4545 19.2973 21.3598 19.6193 21.1705C19.9413 20.9811 20.1951 20.7178 20.3807 20.3807C20.5663 20.0436 20.6572 19.6591 20.6534 19.2273C20.6572 18.7879 20.5644 18.3977 20.375 18.0568C20.1856 17.7159 19.9261 17.4489 19.5966 17.2557C19.267 17.0587 18.8883 16.9602 18.4602 16.9602C18.1117 16.9564 17.7689 17.0208 17.4318 17.1534C17.0947 17.286 16.8277 17.4602 16.6307 17.6761L14.7273 17.3636L15.3352 11.3636H22.0852V13.125H17.0795L16.7443 16.2102H16.8125C17.0284 15.9564 17.3333 15.7462 17.7273 15.5795C18.1212 15.4091 18.553 15.3239 19.0227 15.3239C19.7273 15.3239 20.3561 15.4905 20.9091 15.8239C21.4621 16.1534 21.8977 16.608 22.2159 17.1875C22.5341 17.767 22.6932 18.4299 22.6932 19.1761C22.6932 19.9451 22.5152 20.6307 22.1591 21.233C21.8068 21.8314 21.3163 22.303 20.6875 22.6477C20.0625 22.9886 19.339 23.1591 18.517 23.1591Z" fill="#4BB17E"/>
<rect x="0.5" y="0.5" width="35" height="35" rx="17.5" stroke="#4BB17E" stroke-dasharray="4 4"/>
</svg>
