<svg width="24" height="24" viewBox="0 0 24 24" fill="none" xmlns="http://www.w3.org/2000/svg">
<path d="M12 21.1431C17.0495 21.1431 21.1429 17.0497 21.1429 12.0003C21.1429 6.95082 17.0495 2.85742 12 2.85742C6.95057 2.85742 2.85718 6.95082 2.85718 12.0003C2.85718 17.0497 6.95057 21.1431 12 21.1431Z" stroke="#ADADAF" stroke-width="1.14286" stroke-linecap="round" stroke-linejoin="round"/>
<path d="M12.0001 16.5716C14.5249 16.5716 16.5716 14.5249 16.5716 12.0001C16.5716 9.47541 14.5249 7.42871 12.0001 7.42871C9.47541 7.42871 7.42871 9.47541 7.42871 12.0001C7.42871 14.5249 9.47541 16.5716 12.0001 16.5716Z" stroke="#ADADAF" stroke-width="1.14286" stroke-linecap="round" stroke-linejoin="round"/>
<path d="M15.4286 8.57199L18.2858 5.71484M15.4286 15.4291L18.2858 18.2863M8.5715 15.4291L5.71436 18.2863M8.5715 8.57199L5.71436 5.71484" stroke="#ADADAF" stroke-width="1.14286" stroke-linecap="round" stroke-linejoin="round"/>
</svg>
