<svg width="64" height="64" viewBox="0 0 64 64" fill="none" xmlns="http://www.w3.org/2000/svg">
<g clip-path="url(#clip0_200_958)">
<path fill-rule="evenodd" clip-rule="evenodd" d="M15.5987 20.7332H43.4993C43.6852 20.7336 43.8634 20.8076 43.9948 20.939C44.1263 21.0705 44.2003 21.2487 44.2006 21.4346V33.3815C44.2006 33.7665 43.8843 34.0816 43.4993 34.0816H15.5987C15.2136 34.0816 14.8973 33.7665 14.8973 33.3815V21.4346C14.8973 21.0483 15.2136 20.7332 15.5987 20.7332ZM28.4807 0C36.1831 0 43.1692 3.13424 48.2288 8.17378C53.2895 13.2346 56.4038 20.1994 56.4038 27.9231C56.4038 33.5565 54.7235 38.8223 51.8556 43.2055L63.9425 56.3788L55.6049 64L43.9481 51.1755C39.5224 54.1247 34.1966 55.8462 28.4807 55.8462C20.7782 55.8462 13.7921 52.712 8.73133 47.6725C3.67179 42.6117 0.557556 35.6468 0.557556 27.9231C0.557556 20.2207 3.6918 13.2346 8.73133 8.17378C13.7921 3.11424 20.757 0 28.4807 0ZM46.0172 10.3866C41.5302 5.89967 35.323 3.11424 28.4807 3.11424C21.6384 3.11424 15.4311 5.89967 10.9442 10.3866C6.45723 14.8736 3.67179 21.0808 3.67179 27.9231C3.67179 34.5479 6.28345 40.5776 10.5216 45.027V16.4463C10.5216 15.875 10.9854 15.4112 11.5568 15.4112H47.5399C48.1125 15.4112 48.5763 15.875 48.5763 16.4463V42.4591C51.538 38.3735 53.2895 33.3477 53.2895 27.9231C53.2895 21.0808 50.5029 14.8736 46.0172 10.3866ZM12.5932 46.9661C16.8964 50.5617 22.441 52.732 28.4807 52.732C35.323 52.732 41.5302 49.9466 46.0172 45.4596C46.1822 45.2946 46.3447 45.1271 46.5047 44.957V17.4827H12.5932V46.9661ZM16.4613 39.4024C15.8237 39.4024 15.3061 38.8861 15.3061 38.2485C15.3061 37.6109 15.8237 37.0933 16.4613 37.0933H26.4854C27.123 37.0933 27.6393 37.6109 27.6393 38.2485C27.6393 38.8861 27.123 39.4024 26.4854 39.4024H16.4613ZM32.7301 44.7282C32.4227 44.7282 32.1279 44.6061 31.9106 44.3888C31.6933 44.1715 31.5712 43.8767 31.5712 43.5693C31.5712 43.2619 31.6933 42.9672 31.9106 42.7498C32.1279 42.5325 32.4227 42.4104 32.7301 42.4104H42.5966C42.904 42.4104 43.1988 42.5325 43.4161 42.7498C43.6335 42.9672 43.7556 43.2619 43.7556 43.5693C43.7556 43.8767 43.6335 44.1715 43.4161 44.3888C43.1988 44.6061 42.904 44.7282 42.5966 44.7282H32.7301ZM16.4613 44.7245C15.8237 44.7245 15.3061 44.2069 15.3061 43.5693C15.3061 42.9317 15.8237 42.4141 16.4613 42.4141H26.4854C27.123 42.4141 27.6393 42.9317 27.6393 43.5693C27.6393 44.2069 27.123 44.7245 26.4854 44.7245H16.4613ZM32.7301 39.4062C32.09 39.4062 31.5712 38.8873 31.5712 38.2485C31.5712 37.9411 31.6933 37.6463 31.9106 37.429C32.1279 37.2116 32.4227 37.0895 32.7301 37.0895H42.5966C42.904 37.0895 43.1988 37.2116 43.4161 37.429C43.6335 37.6463 43.7556 37.9411 43.7556 38.2485C43.7556 38.8873 43.2367 39.4062 42.5966 39.4062H32.7301ZM22.4622 23.9237H24.5401V27.7081C24.5401 28.502 24.4725 29.107 24.3363 29.5221C24.2013 29.9359 23.9287 30.2885 23.5174 30.5773C23.1073 30.8636 22.5822 31.0086 21.9421 31.0086C21.2658 31.0086 20.742 30.9123 20.3707 30.7236C19.9981 30.5335 19.7106 30.256 19.508 29.8897C19.3055 29.5246 19.1855 29.072 19.1492 28.5332L21.1245 28.2544C21.127 28.5595 21.1533 28.7857 21.202 28.9333C21.2495 29.0833 21.3333 29.2021 21.4496 29.2946C21.5296 29.3546 21.6421 29.3833 21.7884 29.3833C22.0209 29.3833 22.1909 29.2946 22.2997 29.1158C22.4072 28.937 22.4622 28.6357 22.4622 28.2119V23.9237ZM25.6702 27.413C25.6702 26.2754 25.974 25.3902 26.5841 24.7576C27.1942 24.1225 28.0419 23.8075 29.1308 23.8075C30.2459 23.8075 31.1061 24.1188 31.7099 24.7401C32.3125 25.3627 32.6138 26.2353 32.6138 27.3555C32.6138 28.1694 32.4825 28.837 32.22 29.3571C31.9562 29.8784 31.5737 30.2835 31.0761 30.5735C30.5772 30.8636 29.9559 31.0086 29.212 31.0086C28.4569 31.0086 27.8318 30.8836 27.3355 30.6335C26.8417 30.3822 26.4391 29.9872 26.1316 29.4446C25.824 28.9045 25.6702 28.2269 25.6702 27.413ZM27.7381 27.418C27.7381 28.1194 27.8643 28.6257 28.1156 28.932C28.3682 29.2383 28.712 29.3933 29.1458 29.3933C29.5896 29.3933 29.9359 29.2421 30.1797 28.942C30.4235 28.6407 30.546 28.1019 30.546 27.3218C30.546 26.6667 30.4172 26.1878 30.1634 25.8865C29.9071 25.5827 29.5633 25.4327 29.1258 25.4327C28.7082 25.4327 28.3719 25.5865 28.1194 25.8928C27.8643 26.1991 27.7381 26.7092 27.7381 27.418ZM33.754 23.9237H37.6334C38.2785 23.9237 38.7748 24.0913 39.1211 24.4238C39.4674 24.7551 39.6399 25.1677 39.6399 25.659C39.6399 26.0716 39.5174 26.4254 39.2686 26.7179C39.1048 26.9167 38.8635 27.0705 38.5472 27.1855C39.0286 27.3055 39.3811 27.5118 39.6087 27.8056C39.8349 28.0981 39.9487 28.4669 39.9487 28.9095C39.9487 29.2708 39.8675 29.5959 39.7074 29.8847C39.5449 30.1735 39.3236 30.3997 39.0448 30.5685C38.8698 30.6723 38.6073 30.7486 38.2572 30.7961C37.7909 30.8586 37.4821 30.8911 37.3283 30.8911H33.754V23.9237ZM35.8406 26.7442H36.7445C37.067 26.7442 37.2933 26.6867 37.4196 26.5717C37.5458 26.4554 37.6096 26.1153 37.6096 25.8953C37.6096 25.6928 37.5446 25.534 37.4196 25.4202C37.2933 25.3065 37.0708 25.2489 36.7582 25.2489H35.8406V26.7442ZM35.8406 29.4796H36.897C37.2533 29.4796 37.5046 29.4121 37.6521 29.2808C37.7984 29.1496 37.8721 28.802 37.8721 28.5807C37.8721 28.3744 37.7996 28.2082 37.6546 28.0844C37.5096 27.9594 37.2558 27.8956 36.892 27.8956H35.8406V29.4796Z" fill="black"/>
<g clip-path="url(#clip1_200_958)">
<path fill-rule="evenodd" clip-rule="evenodd" d="M15.5987 20.7332H43.4993C43.6852 20.7336 43.8634 20.8076 43.9948 20.939C44.1263 21.0705 44.2003 21.2487 44.2006 21.4346V33.3815C44.2006 33.7665 43.8843 34.0816 43.4993 34.0816H15.5987C15.2136 34.0816 14.8973 33.7665 14.8973 33.3815V21.4346C14.8973 21.0483 15.2136 20.7332 15.5987 20.7332ZM28.4807 0C36.1831 0 43.1692 3.13424 48.2288 8.17378C53.2895 13.2346 56.4038 20.1994 56.4038 27.9231C56.4038 33.5565 54.7235 38.8223 51.8556 43.2055L63.9425 56.3788L55.6049 64L43.9481 51.1755C39.5224 54.1247 34.1966 55.8462 28.4807 55.8462C20.7782 55.8462 13.7921 52.712 8.73133 47.6725C3.67179 42.6117 0.557556 35.6468 0.557556 27.9231C0.557556 20.2207 3.6918 13.2346 8.73133 8.17378C13.7921 3.11424 20.757 0 28.4807 0ZM46.0172 10.3866C41.5302 5.89967 35.323 3.11424 28.4807 3.11424C21.6384 3.11424 15.4311 5.89967 10.9442 10.3866C6.45723 14.8736 3.67179 21.0808 3.67179 27.9231C3.67179 34.5479 6.28345 40.5776 10.5216 45.027V16.4463C10.5216 15.875 10.9854 15.4112 11.5568 15.4112H47.5399C48.1125 15.4112 48.5763 15.875 48.5763 16.4463V42.4591C51.538 38.3735 53.2895 33.3477 53.2895 27.9231C53.2895 21.0808 50.5029 14.8736 46.0172 10.3866ZM12.5932 46.9661C16.8964 50.5617 22.441 52.732 28.4807 52.732C35.323 52.732 41.5302 49.9466 46.0172 45.4596C46.1822 45.2946 46.3447 45.1271 46.5047 44.957V17.4827H12.5932V46.9661ZM16.4613 39.4024C15.8237 39.4024 15.3061 38.8861 15.3061 38.2485C15.3061 37.6109 15.8237 37.0933 16.4613 37.0933H26.4854C27.123 37.0933 27.6393 37.6109 27.6393 38.2485C27.6393 38.8861 27.123 39.4024 26.4854 39.4024H16.4613ZM32.7301 44.7282C32.4227 44.7282 32.1279 44.6061 31.9106 44.3888C31.6933 44.1715 31.5712 43.8767 31.5712 43.5693C31.5712 43.2619 31.6933 42.9672 31.9106 42.7498C32.1279 42.5325 32.4227 42.4104 32.7301 42.4104H42.5966C42.904 42.4104 43.1988 42.5325 43.4161 42.7498C43.6335 42.9672 43.7556 43.2619 43.7556 43.5693C43.7556 43.8767 43.6335 44.1715 43.4161 44.3888C43.1988 44.6061 42.904 44.7282 42.5966 44.7282H32.7301ZM16.4613 44.7245C15.8237 44.7245 15.3061 44.2069 15.3061 43.5693C15.3061 42.9317 15.8237 42.4141 16.4613 42.4141H26.4854C27.123 42.4141 27.6393 42.9317 27.6393 43.5693C27.6393 44.2069 27.123 44.7245 26.4854 44.7245H16.4613ZM32.7301 39.4062C32.09 39.4062 31.5712 38.8873 31.5712 38.2485C31.5712 37.9411 31.6933 37.6463 31.9106 37.429C32.1279 37.2116 32.4227 37.0895 32.7301 37.0895H42.5966C42.904 37.0895 43.1988 37.2116 43.4161 37.429C43.6335 37.6463 43.7556 37.9411 43.7556 38.2485C43.7556 38.8873 43.2367 39.4062 42.5966 39.4062H32.7301ZM22.4622 23.9237H24.5401V27.7081C24.5401 28.502 24.4725 29.107 24.3363 29.5221C24.2013 29.9359 23.9287 30.2885 23.5174 30.5773C23.1073 30.8636 22.5822 31.0086 21.9421 31.0086C21.2658 31.0086 20.742 30.9123 20.3707 30.7236C19.9981 30.5335 19.7106 30.256 19.508 29.8897C19.3055 29.5246 19.1855 29.072 19.1492 28.5332L21.1245 28.2544C21.127 28.5595 21.1533 28.7857 21.202 28.9333C21.2495 29.0833 21.3333 29.2021 21.4496 29.2946C21.5296 29.3546 21.6421 29.3833 21.7884 29.3833C22.0209 29.3833 22.1909 29.2946 22.2997 29.1158C22.4072 28.937 22.4622 28.6357 22.4622 28.2119V23.9237ZM25.6702 27.413C25.6702 26.2754 25.974 25.3902 26.5841 24.7576C27.1942 24.1225 28.0419 23.8075 29.1308 23.8075C30.2459 23.8075 31.1061 24.1188 31.7099 24.7401C32.3125 25.3627 32.6138 26.2353 32.6138 27.3555C32.6138 28.1694 32.4825 28.837 32.22 29.3571C31.9562 29.8784 31.5737 30.2835 31.0761 30.5735C30.5772 30.8636 29.9559 31.0086 29.212 31.0086C28.4569 31.0086 27.8318 30.8836 27.3355 30.6335C26.8417 30.3822 26.4391 29.9872 26.1316 29.4446C25.824 28.9045 25.6702 28.2269 25.6702 27.413ZM27.7381 27.418C27.7381 28.1194 27.8643 28.6257 28.1156 28.932C28.3682 29.2383 28.712 29.3933 29.1458 29.3933C29.5896 29.3933 29.9359 29.2421 30.1797 28.942C30.4235 28.6407 30.546 28.1019 30.546 27.3218C30.546 26.6667 30.4172 26.1878 30.1634 25.8865C29.9071 25.5827 29.5633 25.4327 29.1258 25.4327C28.7082 25.4327 28.3719 25.5865 28.1194 25.8928C27.8643 26.1991 27.7381 26.7092 27.7381 27.418ZM33.754 23.9237H37.6334C38.2785 23.9237 38.7748 24.0913 39.1211 24.4238C39.4674 24.7551 39.6399 25.1677 39.6399 25.659C39.6399 26.0716 39.5174 26.4254 39.2686 26.7179C39.1048 26.9167 38.8635 27.0705 38.5472 27.1855C39.0286 27.3055 39.3811 27.5118 39.6087 27.8056C39.8349 28.0981 39.9487 28.4669 39.9487 28.9095C39.9487 29.2708 39.8675 29.5959 39.7074 29.8847C39.5449 30.1735 39.3236 30.3997 39.0448 30.5685C38.8698 30.6723 38.6073 30.7486 38.2572 30.7961C37.7909 30.8586 37.4821 30.8911 37.3283 30.8911H33.754V23.9237ZM35.8406 26.7442H36.7445C37.067 26.7442 37.2933 26.6867 37.4196 26.5717C37.5458 26.4554 37.6096 26.1153 37.6096 25.8953C37.6096 25.6928 37.5446 25.534 37.4196 25.4202C37.2933 25.3065 37.0708 25.2489 36.7582 25.2489H35.8406V26.7442ZM35.8406 29.4796H36.897C37.2533 29.4796 37.5046 29.4121 37.6521 29.2808C37.7984 29.1496 37.8721 28.802 37.8721 28.5807C37.8721 28.3744 37.7996 28.2082 37.6546 28.0844C37.5096 27.9594 37.2558 27.8956 36.892 27.8956H35.8406V29.4796Z" fill="#4BB17E"/>
</g>
</g>
<defs>
<clipPath id="clip0_200_958">
<rect width="63.3849" height="64" fill="white" transform="translate(0.557556)"/>
</clipPath>
<clipPath id="clip1_200_958">
<rect x="4" y="3" width="49" height="50" rx="24.5" fill="white"/>
</clipPath>
</defs>
</svg>
