<svg width="32" height="33" viewBox="0 0 32 33" fill="none" xmlns="http://www.w3.org/2000/svg">
<path d="M15.9866 3.16663C8.62663 3.16663 2.66663 9.13996 2.66663 16.5C2.66663 23.86 8.62663 29.8333 15.9866 29.8333C23.36 29.8333 29.3333 23.86 29.3333 16.5C29.3333 9.13996 23.36 3.16663 15.9866 3.16663ZM25.2266 11.1666H21.2933C20.876 9.51524 20.2581 7.92115 19.4533 6.41996C21.8854 7.2573 23.9349 8.94226 25.2266 11.1666ZM16 5.88663C17.1066 7.48663 17.9733 9.25996 18.5466 11.1666H13.4533C14.0266 9.25996 14.8933 7.48663 16 5.88663ZM5.67996 19.1666C5.46663 18.3133 5.33329 17.42 5.33329 16.5C5.33329 15.58 5.46663 14.6866 5.67996 13.8333H10.1866C10.08 14.7133 9.99996 15.5933 9.99996 16.5C9.99996 17.4066 10.08 18.2866 10.1866 19.1666H5.67996ZM6.77329 21.8333H10.7066C11.1333 23.5 11.7466 25.1 12.5466 26.58C10.1119 25.7472 8.06107 24.0611 6.77329 21.8333ZM10.7066 11.1666H6.77329C8.06107 8.93886 10.1119 7.25272 12.5466 6.41996C11.7419 7.92115 11.1239 9.51524 10.7066 11.1666ZM16 27.1133C14.8933 25.5133 14.0266 23.74 13.4533 21.8333H18.5466C17.9733 23.74 17.1066 25.5133 16 27.1133ZM19.12 19.1666H12.88C12.76 18.2866 12.6666 17.4066 12.6666 16.5C12.6666 15.5933 12.76 14.7 12.88 13.8333H19.12C19.24 14.7 19.3333 15.5933 19.3333 16.5C19.3333 17.4066 19.24 18.2866 19.12 19.1666ZM19.4533 26.58C20.2533 25.1 20.8666 23.5 21.2933 21.8333H25.2266C23.9349 24.0577 21.8854 25.7426 19.4533 26.58ZM21.8133 19.1666C21.92 18.2866 22 17.4066 22 16.5C22 15.5933 21.92 14.7133 21.8133 13.8333H26.32C26.5333 14.6866 26.6666 15.58 26.6666 16.5C26.6666 17.42 26.5333 18.3133 26.32 19.1666H21.8133Z" fill="#161616"/>
</svg>
