<svg width="36" height="36" viewBox="0 0 36 36" fill="none" xmlns="http://www.w3.org/2000/svg">
<rect width="36" height="36" rx="7" fill="#F6F6F6"/>
<path d="M18 15.3333C18.7333 15.3333 19.3333 14.7333 19.3333 14C19.3333 13.2666 18.7333 12.6666 18 12.6666C17.2666 12.6666 16.6666 13.2666 16.6666 14C16.6666 14.7333 17.2666 15.3333 18 15.3333ZM18 16.6666C17.2666 16.6666 16.6666 17.2666 16.6666 18C16.6666 18.7333 17.2666 19.3333 18 19.3333C18.7333 19.3333 19.3333 18.7333 19.3333 18C19.3333 17.2666 18.7333 16.6666 18 16.6666ZM18 20.6666C17.2666 20.6666 16.6666 21.2666 16.6666 22C16.6666 22.7333 17.2666 23.3333 18 23.3333C18.7333 23.3333 19.3333 22.7333 19.3333 22C19.3333 21.2666 18.7333 20.6666 18 20.6666Z" fill="#ADADAF"/>
<rect x="0.5" y="0.5" width="35" height="35" rx="6.5" stroke="black" stroke-opacity="0.1"/>
</svg>
