<svg width="48" height="48" viewBox="0 0 48 48" fill="none" xmlns="http://www.w3.org/2000/svg">
<path opacity="0.2" d="M24 30C30.6274 30 36 24.6274 36 18C36 11.3726 30.6274 6 24 6C17.3726 6 12 11.3726 12 18C12 24.6274 17.3726 30 24 30Z" fill="#AFAFAF"/>
<path d="M43.4812 39.75C40.6824 34.9284 36.2023 31.3097 30.9 29.5875C33.4415 28.0761 35.4166 25.7722 36.5217 23.0295C37.6268 20.2869 37.8009 17.2572 37.0172 14.4061C36.2335 11.5549 34.5354 9.03984 32.1837 7.24733C29.8321 5.45483 26.9569 4.48401 24 4.48401C21.0431 4.48401 18.1679 5.45483 15.8162 7.24733C13.4646 9.03984 11.7665 11.5549 10.9828 14.4061C10.1991 17.2572 10.3732 20.2869 11.4783 23.0295C12.5834 25.7722 14.5585 28.0761 17.1 29.5875C11.7977 31.3097 7.31762 34.9284 4.51875 39.75C4.40135 39.9203 4.32045 40.113 4.28112 40.3161C4.2418 40.5192 4.2449 40.7282 4.29024 40.93C4.33557 41.1318 4.42216 41.3221 4.54456 41.4888C4.66696 41.6556 4.82252 41.7952 5.00147 41.899C5.18043 42.0027 5.3789 42.0683 5.58443 42.0917C5.78996 42.115 5.9981 42.0956 6.19576 42.0347C6.39343 41.9737 6.57635 41.8725 6.73304 41.7375C6.88973 41.6025 7.01679 41.4365 7.10625 41.25C8.82071 38.2874 11.2841 35.8278 14.2493 34.1179C17.2144 32.408 20.5771 31.5079 24 31.5079C27.4229 31.5079 30.7856 32.408 33.7507 34.1179C36.7159 35.8278 39.1793 38.2874 40.8937 41.25C40.9832 41.4365 41.1103 41.6025 41.2669 41.7375C41.4236 41.8725 41.6066 41.9737 41.8042 42.0347C42.0019 42.0956 42.21 42.115 42.4156 42.0917C42.6211 42.0683 42.8196 42.0027 42.9985 41.899C43.1775 41.7952 43.333 41.6556 43.4554 41.4888C43.5778 41.3221 43.6644 41.1318 43.7098 40.93C43.7551 40.7282 43.7582 40.5192 43.7189 40.3161C43.6795 40.113 43.5986 39.9203 43.4812 39.75ZM13.5 18C13.5 15.9233 14.1158 13.8932 15.2696 12.1665C16.4233 10.4398 18.0632 9.09394 19.9818 8.29922C21.9004 7.5045 24.0116 7.29657 26.0484 7.70171C28.0852 8.10686 29.9562 9.10688 31.4246 10.5753C32.8931 12.0438 33.8931 13.9147 34.2982 15.9515C34.7034 17.9883 34.4955 20.0995 33.7007 22.0181C32.906 23.9368 31.5602 25.5766 29.8335 26.7304C28.1068 27.8841 26.0767 28.5 24 28.5C21.2152 28.5 18.5445 27.3937 16.5754 25.4246C14.6062 23.4554 13.5 20.7847 13.5 18Z" fill="#AFAFAF"/>
</svg>
