<svg width="66" height="64" viewBox="0 0 66 64" fill="none" xmlns="http://www.w3.org/2000/svg">
<g clip-path="url(#clip0_200_962)">
<path fill-rule="evenodd" clip-rule="evenodd" d="M46.4605 26.5357L56.162 9.73214L39.0115 0L22.1084 29.2768C23.3227 28.7844 24.602 28.4579 25.9082 28.324L38.2883 6.8801C39.8903 7.79209 41.6735 7.29719 42.4681 5.89923L49.2194 9.79719C48.4503 11.1505 48.9452 12.9349 50.338 13.7245L43.7462 25.1416C44.6913 25.523 45.5931 26.0013 46.4605 26.5357ZM8.48087 48.6046C9.2602 48.6046 9.89286 49.2372 9.89286 50.0166C9.89286 50.7972 9.2602 51.4286 8.48087 51.4286C7.70153 51.4286 7.06888 50.7972 7.06888 50.0166C7.06888 49.2372 7.70153 48.6046 8.48087 48.6046ZM49.5778 36.2844C49.5765 36.0166 49.5931 35.7628 49.6263 35.523L46.8495 33.6684C46.4503 33.4018 46.0128 33.0957 45.574 32.7883C43.9949 31.6824 42.3686 30.5434 40.6161 30.0829C39.6696 29.8342 38.5778 29.6684 37.4592 29.6467C36.4847 29.6288 35.4898 29.7207 34.5548 29.9617C33.9962 30.1071 33.4566 30.3074 32.9566 30.5714C32.5115 30.8061 32.0969 31.0944 31.7283 31.4388L29.8635 33.6569C29.8074 33.7666 29.727 33.861 29.6301 33.9337L24.4885 40.0523C24.5651 40.4439 24.7194 40.7717 24.9298 41.0332C25.1747 41.3367 25.5013 41.5625 25.8776 41.7028C26.2755 41.852 26.7347 41.9094 27.2207 41.8699C27.9962 41.8048 28.8227 41.4885 29.5689 40.898L30.9974 39.7168C31.3584 39.4184 31.6594 39.1441 31.9579 38.8699C32.6173 38.2679 33.2768 37.6658 33.9681 37.2538C35.5702 36.2972 37.1645 36.2666 38.7424 38.912L46.8265 53.4936H49.5753L49.5778 36.2844ZM50.2283 33.9503C50.3533 33.7768 50.4962 33.6173 50.6569 33.4732C51.3623 32.838 52.3725 32.5281 53.6684 32.5268V32.523L60.6964 32.5255C62.1671 32.5191 63.3635 32.7883 64.1913 33.426C65.1135 34.1352 65.5459 35.2168 65.361 36.7666L63.8074 52.8227C63.6939 54.2564 63.3151 55.3801 62.6403 56.1569C61.9222 56.9821 60.9222 57.389 59.6123 57.3342L53.2921 57.3355C52.4069 57.3814 51.6569 57.1416 51.0293 56.639C50.5689 56.273 50.1888 55.7704 49.8839 55.1441H47.6977C47.9923 56.0051 47.977 56.8214 47.7424 57.5472C47.5 58.2934 47.0293 58.9298 46.4286 59.4056C45.8406 59.8724 45.1225 60.1913 44.3725 60.315C43.639 60.4349 42.8725 60.3686 42.1594 60.0727C41.3304 60.9401 40.4566 61.486 39.5459 61.7372C38.6314 61.9885 37.7054 61.9375 36.7679 61.6084C35.8788 62.5944 34.8954 63.213 33.8125 63.4477C32.7092 63.6862 31.5357 63.5217 30.2934 62.9362C29.9056 63.2385 29.5 63.4783 29.0778 63.6531C28.477 63.9018 27.8469 64.0166 27.1901 63.9974C25.6148 63.9503 24.5536 63.4847 23.7092 62.7296C22.9043 62.0102 22.3622 61.0855 21.7513 60.0217L18.2679 53.9452H15.5663C15.4145 54.7066 15.1531 55.3533 14.7653 55.8724L14.727 55.926C14.0383 56.8112 13.0268 57.2819 11.6288 57.2538L5.73469 57.2551C4.56633 57.4439 3.56505 57.1582 2.78189 56.25C2.08801 55.4452 1.61352 54.1441 1.41199 52.2283L1.40306 52.1582L0.184948 37.0702C-0.0561239 35.4413 0.210458 34.2895 0.864795 33.5026C1.52551 32.7092 2.52041 32.3508 3.74745 32.2934L3.84949 32.287H11.3112V32.2908C12.4911 32.2768 13.5038 32.4719 14.2691 32.9668V32.9694C14.8878 33.3699 15.3316 33.9337 15.5599 34.7003H20.6378C21.9133 33.8393 23.1084 33.1633 24.4298 32.7513C25.727 32.3469 27.1186 32.2054 28.7806 32.4043L30.5179 30.3367L30.5829 30.2679C31.0676 29.8074 31.6097 29.4286 32.1926 29.1212C32.8048 28.7985 33.463 28.5536 34.1441 28.3776C35.2283 28.0969 36.3712 27.9898 37.4847 28.0102C38.7462 28.0332 39.9719 28.2194 41.0306 28.4974L41.0332 28.4987C43.06 29.0293 44.8112 30.2564 46.5115 31.4477C46.9171 31.7321 47.3214 32.0153 47.7602 32.3074L50.2283 33.9503ZM14.0829 35.7538C14.0547 35.6575 14.0443 35.5567 14.0523 35.4566C13.9617 34.926 13.7296 34.5676 13.3852 34.3444C12.9043 34.037 12.1913 33.9171 11.3202 33.9273H11.3112V33.9311L3.8176 33.9298C3.04592 33.9668 2.45408 34.1518 2.12372 34.5497C1.76786 34.9758 1.6403 35.7117 1.81377 36.852L1.82143 36.9273L3.04082 52.0561C3.20663 53.6199 3.54337 54.625 4.02041 55.1786C4.39796 55.6148 4.91326 55.7398 5.53189 55.6275C5.58163 55.6186 5.63138 55.6135 5.67985 55.6135L11.5816 55.611L11.6696 55.6161C12.4962 55.6301 13.0689 55.3827 13.4298 54.9184L13.4592 54.8827C13.8584 54.3406 14.0548 53.5038 14.0855 52.4324L14.0829 35.7538ZM15.727 52.3023H18.7423C19.0612 52.3023 19.338 52.4834 19.4745 52.7487L23.1773 59.2066C23.7194 60.1518 24.1977 60.9707 24.801 61.5102C25.3648 62.014 26.1033 62.3265 27.236 62.3597C27.6607 62.3724 28.0676 62.2985 28.4554 62.139C28.6926 62.0408 28.926 61.9082 29.1543 61.7423L26.7423 57.2283C26.6917 57.1335 26.6602 57.0297 26.6497 56.9227C26.6392 56.8157 26.6499 56.7078 26.6812 56.6049C26.7124 56.5021 26.7637 56.4064 26.832 56.3234C26.9002 56.2404 26.9842 56.1717 27.0791 56.1212C27.4783 55.9082 27.9745 56.0587 28.1862 56.4579L30.8087 61.3648C31.7857 61.861 32.6696 62.0153 33.4656 61.8431C34.1926 61.6849 34.8788 61.2487 35.5242 60.5434L31.7449 54.6122C31.6285 54.429 31.5896 54.2071 31.6367 53.9952C31.6838 53.7833 31.8131 53.5988 31.9962 53.4821C32.0868 53.4245 32.1879 53.3853 32.2936 53.3667C32.3994 53.3481 32.5078 53.3506 32.6127 53.3739C32.7175 53.3972 32.8167 53.441 32.9046 53.5027C32.9925 53.5644 33.0674 53.6428 33.125 53.7334L37.1084 59.9847C37.8061 60.2679 38.477 60.3329 39.1161 60.1582C39.7258 59.9898 40.3367 59.5982 40.9477 58.9668L37.3393 52.1747C37.237 51.9824 37.2152 51.7573 37.2789 51.549C37.3425 51.3407 37.4863 51.1661 37.6786 51.0638C37.8711 50.962 38.0962 50.9406 38.3044 51.0045C38.5127 51.0683 38.6871 51.2121 38.7895 51.4043L42.5217 58.4311C43.0077 58.7117 43.5689 58.7857 44.1097 58.6964C44.5816 58.6199 45.0357 58.4171 45.4082 58.1224C45.7666 57.8367 46.0459 57.4681 46.1824 57.0459C46.3316 56.5829 46.3163 56.0383 46.0587 55.4464C46.0051 55.324 45.9834 55.1939 45.9924 55.0676C45.8786 55.0185 45.7774 54.9442 45.6966 54.8503C45.6157 54.7563 45.5572 54.6453 45.5255 54.5255L37.3342 39.7487C36.4235 38.2258 35.602 38.1862 34.8087 38.6582C34.2462 38.9936 33.6543 39.5357 33.0612 40.0765C32.7028 40.4043 32.3418 40.7347 32.0434 40.9809L30.5893 42.1786C29.5765 42.9834 28.4362 43.4158 27.3546 43.5064C26.6365 43.5651 25.9349 43.4732 25.3061 43.2372C24.6556 42.9936 24.0855 42.5969 23.6531 42.0599C23.1862 41.4809 22.8814 40.7474 22.8087 39.875C22.7883 39.6237 22.8827 39.3916 23.0472 39.2258L27.4745 33.9579C26.5332 33.9452 25.7003 34.074 24.9184 34.3176C23.7258 34.6875 22.6135 35.3367 21.3954 36.1671C21.2503 36.2812 21.0711 36.3432 20.8865 36.3431H15.727V52.3023ZM56.7959 48.6046C57.5753 48.6046 58.2079 49.2372 58.2079 50.0166C58.2079 50.7972 57.5753 51.4286 56.7959 51.4286C56.0153 51.4286 55.3827 50.7972 55.3827 50.0166C55.3827 49.2372 56.0153 48.6046 56.7959 48.6046ZM38.1926 16.8061C35.7117 16.7092 33.6224 18.6403 33.5255 21.1212C33.4796 22.2717 33.8712 23.3367 34.5497 24.1582C36.7309 23.8087 39.1212 23.9235 41.2768 24.3916C42.0296 23.6016 42.4678 22.5637 42.5089 21.4732C42.6059 18.9923 40.6735 16.9031 38.1926 16.8061ZM18.7117 30.6352L33.6135 4.82526L31.1888 3.45025L16.2079 29.398C16.7704 29.7296 17.3253 30.1696 17.773 30.6352H18.7117Z" fill="black"/>
<path fill-rule="evenodd" clip-rule="evenodd" d="M46.4604 26.5357L56.162 9.73214L39.0115 0L22.1084 29.2768C23.3227 28.7844 24.602 28.4579 25.9081 28.324L38.2882 6.8801C39.8903 7.79209 41.6734 7.29719 42.4681 5.89923L49.2194 9.79719C48.4502 11.1505 48.9451 12.9349 50.338 13.7245L43.7462 25.1416C44.6913 25.523 45.5931 26.0013 46.4604 26.5357ZM38.1926 16.8061C35.7117 16.7092 33.6224 18.6403 33.5255 21.1212C33.4796 22.2717 33.8711 23.3367 34.5497 24.1582C36.7308 23.8087 39.1212 23.9235 41.2768 24.3916C42.0296 23.6016 42.4678 22.5637 42.5089 21.4732C42.6058 18.9923 40.6734 16.9031 38.1926 16.8061ZM18.7117 30.6352L33.6135 4.82526L31.1888 3.45025L16.2079 29.398C16.7704 29.7296 17.3252 30.1696 17.7729 30.6352H18.7117Z" fill="#4BB17E"/>
</g>
<defs>
<clipPath id="clip0_200_962">
<rect width="65.3061" height="64" fill="white" transform="translate(0.0969238)"/>
</clipPath>
</defs>
</svg>
