<svg width="36" height="36" viewBox="0 0 36 36" fill="none" xmlns="http://www.w3.org/2000/svg">
<path d="M18.608 23.1591C18.0511 23.1553 17.5076 23.0587 16.9773 22.8693C16.447 22.6761 15.9697 22.3636 15.5455 21.9318C15.1212 21.4962 14.7841 20.9186 14.5341 20.1989C14.2841 19.4754 14.161 18.5795 14.1648 17.5114C14.1648 16.5152 14.2708 15.6269 14.483 14.8466C14.6951 14.0663 15 13.4072 15.3977 12.8693C15.7955 12.3277 16.2746 11.9148 16.8352 11.6307C17.3996 11.3466 18.0303 11.2045 18.7273 11.2045C19.4583 11.2045 20.1061 11.3485 20.6705 11.6364C21.2386 11.9242 21.697 12.3182 22.0455 12.8182C22.3939 13.3144 22.6098 13.875 22.6932 14.5H20.6193C20.5133 14.053 20.2955 13.697 19.9659 13.4318C19.6402 13.1629 19.2273 13.0284 18.7273 13.0284C17.9205 13.0284 17.2992 13.3788 16.8636 14.0795C16.4318 14.7803 16.214 15.7424 16.2102 16.9659H16.2898C16.4754 16.6326 16.7159 16.3466 17.0114 16.108C17.3068 15.8693 17.6402 15.6856 18.0114 15.5568C18.3864 15.4242 18.7822 15.358 19.1989 15.358C19.8807 15.358 20.4924 15.5208 21.0341 15.8466C21.5795 16.1723 22.0114 16.6212 22.3295 17.1932C22.6477 17.7614 22.8049 18.4129 22.8011 19.1477C22.8049 19.9129 22.6307 20.6004 22.2784 21.2102C21.9261 21.8163 21.4356 22.2936 20.8068 22.642C20.178 22.9905 19.4451 23.1629 18.608 23.1591ZM18.5966 21.4545C19.0095 21.4545 19.3788 21.3542 19.7045 21.1534C20.0303 20.9527 20.2879 20.6818 20.4773 20.3409C20.6667 20 20.7595 19.6174 20.7557 19.1932C20.7595 18.7765 20.6686 18.3996 20.483 18.0625C20.3011 17.7254 20.0492 17.4583 19.7273 17.2614C19.4053 17.0644 19.0379 16.9659 18.625 16.9659C18.3182 16.9659 18.0322 17.0246 17.767 17.142C17.5019 17.2595 17.2708 17.4223 17.0739 17.6307C16.8769 17.8352 16.7216 18.0739 16.608 18.3466C16.4981 18.6155 16.4413 18.9034 16.4375 19.2102C16.4413 19.6155 16.536 19.9886 16.7216 20.3295C16.9072 20.6705 17.1629 20.9432 17.4886 21.1477C17.8144 21.3523 18.1837 21.4545 18.5966 21.4545Z" fill="#4BB17E"/>
<rect x="0.5" y="0.5" width="35" height="35" rx="17.5" stroke="#4BB17E" stroke-dasharray="4 4"/>
</svg>
