<svg width="36" height="36" viewBox="0 0 36 36" fill="none" xmlns="http://www.w3.org/2000/svg">
<path d="M18.4993 23.1591C17.6811 23.1591 16.9538 23.0189 16.3175 22.7386C15.6849 22.4583 15.1849 22.0682 14.8175 21.5682C14.45 21.0682 14.255 20.4905 14.2322 19.8352H16.3686C16.3875 20.1496 16.4917 20.4242 16.6811 20.6591C16.8705 20.8902 17.1224 21.0701 17.4368 21.1989C17.7512 21.3277 18.1035 21.392 18.4936 21.392C18.9103 21.392 19.2796 21.3201 19.6016 21.1761C19.9235 21.0284 20.1754 20.8239 20.3572 20.5625C20.5391 20.3011 20.6281 20 20.6243 19.6591C20.6281 19.3068 20.5372 18.9962 20.3516 18.7273C20.166 18.4583 19.897 18.2481 19.5447 18.0966C19.1963 17.9451 18.7758 17.8693 18.2834 17.8693H17.255V16.2443H18.2834C18.6887 16.2443 19.0429 16.1742 19.3459 16.0341C19.6527 15.8939 19.8932 15.697 20.0675 15.4432C20.2417 15.1856 20.3269 14.8883 20.3232 14.5511C20.3269 14.2216 20.2531 13.9356 20.1016 13.6932C19.9538 13.447 19.7436 13.2557 19.4709 13.1193C19.2019 12.983 18.8857 12.9148 18.522 12.9148C18.166 12.9148 17.8364 12.9792 17.5334 13.108C17.2304 13.2367 16.986 13.4205 16.8004 13.6591C16.6148 13.8939 16.5163 14.1742 16.505 14.5H14.4766C14.4917 13.8485 14.6792 13.2765 15.0391 12.7841C15.4027 12.2879 15.8875 11.9015 16.4936 11.625C17.0997 11.3447 17.7796 11.2045 18.5334 11.2045C19.3099 11.2045 19.9841 11.3504 20.5561 11.642C21.1319 11.9299 21.5769 12.3182 21.8913 12.8068C22.2057 13.2955 22.3629 13.8352 22.3629 14.4261C22.3667 15.0814 22.1735 15.6307 21.7834 16.0739C21.397 16.517 20.8894 16.8068 20.2607 16.9432V17.0341C21.0788 17.1477 21.7057 17.4508 22.1413 17.9432C22.5807 18.4318 22.7985 19.0398 22.7947 19.767C22.7947 20.4186 22.6091 21.0019 22.2379 21.517C21.8705 22.0284 21.3629 22.4299 20.7152 22.7216C20.0713 23.0133 19.3326 23.1591 18.4993 23.1591Z" fill="#4BB17E"/>
<rect x="0.5" y="0.5" width="35" height="35" rx="17.5" stroke="#4BB17E" stroke-dasharray="4 4"/>
</svg>
