<svg width="36" height="36" viewBox="0 0 36 36" fill="none" xmlns="http://www.w3.org/2000/svg">
<path d="M14.0653 23V21.4773L18.1051 17.517C18.4915 17.1269 18.8134 16.7803 19.071 16.4773C19.3286 16.1742 19.5218 15.8807 19.6506 15.5966C19.7794 15.3125 19.8438 15.0095 19.8438 14.6875C19.8438 14.3201 19.7604 14.0057 19.5938 13.7443C19.4271 13.4792 19.1979 13.2746 18.9062 13.1307C18.6146 12.9867 18.2831 12.9148 17.9119 12.9148C17.5294 12.9148 17.1941 12.9943 16.9062 13.1534C16.6184 13.3087 16.3949 13.5303 16.2358 13.8182C16.0805 14.1061 16.0028 14.4489 16.0028 14.8466H13.9972C13.9972 14.108 14.1657 13.4659 14.5028 12.9205C14.84 12.375 15.304 11.9527 15.8949 11.6534C16.4896 11.3542 17.1714 11.2045 17.9403 11.2045C18.7206 11.2045 19.4063 11.3504 19.9972 11.642C20.5881 11.9337 21.0464 12.3333 21.3722 12.8409C21.7017 13.3485 21.8665 13.928 21.8665 14.5795C21.8665 15.0152 21.7831 15.4432 21.6165 15.8636C21.4498 16.2841 21.1563 16.75 20.7358 17.2614C20.3191 17.7727 19.7339 18.392 18.9801 19.1193L16.9744 21.1591V21.2386H22.0426V23H14.0653Z" fill="#4BB17E"/>
<rect x="0.5" y="0.5" width="35" height="35" rx="17.5" stroke="#4BB17E" stroke-dasharray="4 4"/>
</svg>
