<svg width="36" height="36" viewBox="0 0 36 36" fill="none" xmlns="http://www.w3.org/2000/svg">
<rect width="36" height="36" rx="7" fill="#C8FAE3" fill-opacity="0.7"/>
<path d="M28.875 12.8531C28.762 12.7844 28.6323 12.7481 28.5 12.7481C28.3677 12.7481 28.238 12.7844 28.125 12.8531L24 15.2062V14.625C24 14.1325 23.903 13.6449 23.7145 13.1899C23.5261 12.735 23.2499 12.3216 22.9016 11.9733C22.5534 11.6251 22.14 11.3489 21.6851 11.1605C21.2301 10.972 20.7425 10.875 20.25 10.875H8.25C7.85218 10.875 7.47064 11.033 7.18934 11.3143C6.90804 11.5956 6.75 11.9772 6.75 12.375V21.375C6.75 22.3696 7.14509 23.3234 7.84835 24.0267C8.19657 24.3749 8.60997 24.6511 9.06494 24.8395C9.51991 25.028 10.0075 25.125 10.5 25.125H22.5C22.8978 25.125 23.2794 24.967 23.5607 24.6857C23.842 24.4044 24 24.0228 24 23.625V20.7938L28.125 23.1469C28.2393 23.2124 28.3683 23.2479 28.5 23.25C28.6319 23.2492 28.7612 23.2136 28.875 23.1469C28.9899 23.0828 29.0854 22.9888 29.1514 22.875C29.2174 22.7611 29.2515 22.6316 29.25 22.5V13.5C29.2515 13.3684 29.2174 13.2389 29.1514 13.125C29.0854 13.0112 28.9899 12.9172 28.875 12.8531ZM22.5 23.625H10.5C9.90402 23.6225 9.33316 23.3847 8.91174 22.9633C8.49031 22.5418 8.25247 21.971 8.25 21.375V12.375H20.25C20.846 12.3775 21.4168 12.6153 21.8383 13.0367C22.2597 13.4582 22.4975 14.029 22.5 14.625V23.625ZM27.75 21.2062L24 19.0687V16.9312L27.75 14.7938V21.2062Z" fill="#4BB17E"/>
</svg>
