<svg width="32" height="32" viewBox="0 0 32 32" fill="none" xmlns="http://www.w3.org/2000/svg">
<path d="M18.6667 7.99996V5.33329H13.3334V7.99996H18.6667ZM5.33341 12V24C5.33341 24.7333 5.93341 25.3333 6.66675 25.3333H25.3334C26.0667 25.3333 26.6667 24.7333 26.6667 24V12C26.6667 11.2666 26.0667 10.6666 25.3334 10.6666H6.66675C5.93341 10.6666 5.33341 11.2666 5.33341 12ZM26.6667 7.99996C28.1467 7.99996 29.3334 9.18663 29.3334 10.6666V25.3333C29.3334 26.8133 28.1467 28 26.6667 28H5.33341C3.85341 28 2.66675 26.8133 2.66675 25.3333L2.68008 10.6666C2.68008 9.18663 3.85341 7.99996 5.33341 7.99996H10.6667V5.33329C10.6667 3.85329 11.8534 2.66663 13.3334 2.66663H18.6667C20.1467 2.66663 21.3334 3.85329 21.3334 5.33329V7.99996H26.6667Z" fill="black"/>
</svg>
