<svg width="24" height="24" viewBox="0 0 24 24" fill="none" xmlns="http://www.w3.org/2000/svg">
<path d="M20.25 3.75H3.75C3.35218 3.75 2.97064 3.90804 2.68934 4.18934C2.40804 4.47064 2.25 4.85218 2.25 5.25V17.25C2.25 17.6478 2.40804 18.0294 2.68934 18.3107C2.97064 18.592 3.35218 18.75 3.75 18.75H9.32812L10.7156 21.0656C10.8473 21.2892 11.0351 21.4745 11.2603 21.6032C11.4856 21.732 11.7405 21.7997 12 21.7997C12.2595 21.7997 12.5144 21.732 12.7397 21.6032C12.9649 21.4745 13.1527 21.2892 13.2844 21.0656L14.6719 18.75H20.25C20.6478 18.75 21.0294 18.592 21.3107 18.3107C21.592 18.0294 21.75 17.6478 21.75 17.25V5.25C21.75 4.85218 21.592 4.47064 21.3107 4.18934C21.0294 3.90804 20.6478 3.75 20.25 3.75ZM20.25 17.25H14.6719C14.4131 17.2515 14.159 17.3196 13.9341 17.4477C13.7091 17.5757 13.5209 17.7595 13.3875 17.9813L12 20.2969L10.6125 17.9813C10.4791 17.7595 10.2909 17.5757 10.0659 17.4477C9.84102 17.3196 9.58694 17.2515 9.32812 17.25H3.75V5.25H20.25V17.25ZM10.875 11.25C10.875 11.0275 10.941 10.81 11.0646 10.625C11.1882 10.44 11.3639 10.2958 11.5695 10.2106C11.775 10.1255 12.0012 10.1032 12.2195 10.1466C12.4377 10.19 12.6382 10.2972 12.7955 10.4545C12.9528 10.6118 13.06 10.8123 13.1034 11.0305C13.1468 11.2488 13.1245 11.475 13.0394 11.6805C12.9542 11.8861 12.81 12.0618 12.625 12.1854C12.44 12.309 12.2225 12.375 12 12.375C11.7016 12.375 11.4155 12.2565 11.2045 12.0455C10.9935 11.8345 10.875 11.5484 10.875 11.25ZM6.375 11.25C6.375 11.0275 6.44098 10.81 6.5646 10.625C6.68821 10.44 6.86391 10.2958 7.06948 10.2106C7.27505 10.1255 7.50125 10.1032 7.71948 10.1466C7.93771 10.19 8.13816 10.2972 8.2955 10.4545C8.45283 10.6118 8.55998 10.8123 8.60338 11.0305C8.64679 11.2488 8.62451 11.475 8.53936 11.6805C8.45422 11.8861 8.31002 12.0618 8.12502 12.1854C7.94001 12.309 7.7225 12.375 7.5 12.375C7.20163 12.375 6.91548 12.2565 6.7045 12.0455C6.49353 11.8345 6.375 11.5484 6.375 11.25ZM15.375 11.25C15.375 11.0275 15.441 10.81 15.5646 10.625C15.6882 10.44 15.8639 10.2958 16.0695 10.2106C16.275 10.1255 16.5012 10.1032 16.7195 10.1466C16.9377 10.19 17.1382 10.2972 17.2955 10.4545C17.4528 10.6118 17.56 10.8123 17.6034 11.0305C17.6468 11.2488 17.6245 11.475 17.5394 11.6805C17.4542 11.8861 17.31 12.0618 17.125 12.1854C16.94 12.309 16.7225 12.375 16.5 12.375C16.2016 12.375 15.9155 12.2565 15.7045 12.0455C15.4935 11.8345 15.375 11.5484 15.375 11.25Z" fill="white"/>
</svg>
