<svg width="25" height="24" viewBox="0 0 25 24" fill="none" xmlns="http://www.w3.org/2000/svg">
<path d="M8.34628 11.3079H7.65398V12.6925H8.34628V11.3079ZM16.6539 12.6925H17.3462V11.3079H16.6539V12.6925ZM8.34628 7.15412H7.65398V8.53872H8.34628V7.15412ZM11.1155 8.53872H11.8078V7.15412H11.1155V8.53872ZM16.6539 2.30802L17.144 1.81787L16.9405 1.61572H16.6539V2.30802ZM20.8077 6.46182H21.5V6.17521L21.2978 5.97167L20.8077 6.46182ZM12.5001 17.5386L12.8102 18.1575L12.8656 18.1298L12.9155 18.0925L12.5001 17.5386ZM8.34628 12.6925H16.6539V11.3079H8.34628V12.6925ZM8.34628 8.53872H11.1155V7.15412H8.34628V8.53872ZM19.4231 21.0001H5.57708V22.3847H19.4231V21.0001ZM4.88478 20.3078V3.69262H3.50018V20.3078H4.88478ZM5.57708 3.00032H16.6539V1.61572H5.57708V3.00032ZM20.1154 6.46182V20.3078H21.5V6.46182H20.1154ZM16.1637 2.79817L20.3175 6.95197L21.2978 5.97167L17.144 1.81787L16.1637 2.79817ZM5.57708 21.0001C5.39347 21.0001 5.21738 20.9272 5.08755 20.7974C4.95772 20.6675 4.88478 20.4914 4.88478 20.3078H3.50018C3.50018 20.8587 3.719 21.3869 4.10849 21.7764C4.49799 22.1659 5.02626 22.3847 5.57708 22.3847V21.0001ZM19.4231 22.3847C19.9739 22.3847 20.5022 22.1659 20.8917 21.7764C21.2812 21.3869 21.5 20.8587 21.5 20.3078H20.1154C20.1154 20.4914 20.0424 20.6675 19.9126 20.7974C19.7828 20.9272 19.6067 21.0001 19.4231 21.0001V22.3847ZM4.88478 3.69262C4.88478 3.50901 4.95772 3.33292 5.08755 3.20309C5.21738 3.07326 5.39347 3.00032 5.57708 3.00032V1.61572C5.02626 1.61572 4.49799 1.83454 4.10849 2.22403C3.719 2.61353 3.50018 3.14179 3.50018 3.69262H4.88478ZM9.69488 17.7574C9.84858 17.2963 10.2861 16.8685 10.8441 16.7189C11.3661 16.5791 12.0376 16.6705 12.7022 17.3365L13.6825 16.3562C12.6856 15.3593 11.5101 15.1059 10.4855 15.3814C9.49827 15.6473 8.68967 16.3963 8.3809 17.3199L9.69488 17.7574ZM12.7022 17.3365C12.7412 17.3743 12.7777 17.4145 12.8116 17.4569L13.9055 16.6068C13.8364 16.5192 13.7619 16.4359 13.6825 16.3576L12.7022 17.3365ZM12.8116 17.4569C12.9196 17.5954 12.8947 17.6397 12.8989 17.6092C12.9016 17.5899 12.9072 17.6217 12.8241 17.6965C12.7044 17.7965 12.5686 17.8756 12.4225 17.9305C12.247 18.0011 12.064 18.0512 11.877 18.08C11.763 18.1017 11.6463 18.1064 11.5309 18.0938C11.5073 18.0883 11.5558 18.0938 11.6278 18.1451C11.7161 18.2132 11.781 18.3071 11.8135 18.4138C11.846 18.5205 11.8445 18.6347 11.8092 18.7405C11.8013 18.7634 11.7906 18.7853 11.7773 18.8055C11.7746 18.8083 11.7981 18.7778 11.877 18.7128C12.0349 18.5854 12.3256 18.3998 12.8102 18.1589L12.1899 16.9197C11.6679 17.18 11.2761 17.4182 11.0075 17.6355C10.8713 17.7419 10.7502 17.8662 10.6475 18.0052C10.5169 18.18 10.4487 18.3936 10.4536 18.6117C10.4596 18.7394 10.4945 18.864 10.5557 18.9763C10.6168 19.0885 10.7027 19.1854 10.8067 19.2597C10.9632 19.376 11.1363 19.4258 11.2636 19.4521C11.5226 19.5034 11.8175 19.4895 12.0847 19.4494C12.6109 19.3691 13.2921 19.142 13.7559 18.7211C13.9968 18.5009 14.2253 18.1852 14.2738 17.7712C14.3236 17.3476 14.1713 16.9502 13.9041 16.6082L12.8116 17.4569ZM12.9155 18.0925C13.137 17.9231 13.3777 17.7804 13.6327 17.6674L13.083 16.3963C12.7507 16.5403 12.4184 16.7356 12.0847 16.9848L12.9155 18.0925ZM13.6327 17.6674C14.5327 17.2783 15.3371 17.4832 16.161 17.8751C16.3687 17.9748 16.5708 18.0828 16.7757 18.1935C16.9751 18.3015 17.1856 18.4165 17.385 18.5189C17.7671 18.7114 18.2406 18.9232 18.7308 18.9232V17.5386C18.6006 17.5386 18.3874 17.4735 18.0108 17.2839C17.8336 17.1925 17.648 17.09 17.4348 16.9751C17.2271 16.8629 16.9973 16.7397 16.7563 16.6262C15.7899 16.1651 14.5258 15.7733 13.083 16.3963L13.6327 17.6674Z" fill="white"/>
</svg>
