<svg width="28" height="28" viewBox="0 0 28 28" fill="none" xmlns="http://www.w3.org/2000/svg">
<path d="M21.0361 19.3865L26.0329 24.3822L24.3821 26.033L19.3864 21.0362C17.5276 22.5263 15.2156 23.3368 12.8333 23.3334C7.03725 23.3334 2.33325 18.6294 2.33325 12.8334C2.33325 7.03737 7.03725 2.33337 12.8333 2.33337C18.6293 2.33337 23.3333 7.03737 23.3333 12.8334C23.3366 15.2157 22.5262 17.5277 21.0361 19.3865ZM18.6958 18.5209C20.1764 16.9982 21.0033 14.9572 20.9999 12.8334C20.9999 8.32071 17.3448 4.66671 12.8333 4.66671C8.32059 4.66671 4.66659 8.32071 4.66659 12.8334C4.66659 17.3449 8.32059 21 12.8333 21C14.9571 21.0034 16.9981 20.1765 18.5208 18.6959L18.6958 18.5209Z" fill="white"/>
</svg>
